<svg width="34" height="40" viewBox="0 0 34 40" fill="none" xmlns="http://www.w3.org/2000/svg">
<path d="M2 21.3846H18M18 31.0769H2M7.2848 7.7231H9.99995H12.7151M13.6364 11.6923V3.38462C13.6364 3.01739 13.4831 2.66521 13.2103 2.40554C12.9376 2.14588 12.5676 2 12.1818 2H7.81818C7.43241 2 7.06244 2.14588 6.78966 2.40554C6.51688 2.66521 6.36364 3.01739 6.36364 3.38462V11.6923C5.02092 12.5419 3.91983 13.6945 3.15848 15.0474C2.39712 16.4002 1.99914 17.9114 2 19.4462V35.2308C2 35.9652 2.30649 36.6696 2.85205 37.1889C3.39762 37.7082 4.13755 38 4.90909 38H15.0909C15.8624 38 16.6024 37.7082 17.1479 37.1889C17.6935 36.6696 18 35.9652 18 35.2308V19.4462C18.0009 17.9114 17.6029 16.4002 16.8415 15.0474C16.0802 13.6945 14.9791 12.5419 13.6364 11.6923Z" stroke="white" stroke-opacity="0.75" stroke-width="3" stroke-linecap="round" stroke-linejoin="round"/>
<path d="M23 28.7692H31.8889M31.8889 34.1538H23M25.936 21.1795H27.4444H28.9528M29.4646 23.3846V18.7692C29.4646 18.5652 29.3795 18.3696 29.228 18.2253C29.0764 18.081 28.8709 18 28.6566 18H26.2323C26.018 18 25.8125 18.081 25.6609 18.2253C25.5094 18.3696 25.4242 18.5652 25.4242 18.7692V23.3846C24.6783 23.8566 24.0666 24.4969 23.6436 25.2485C23.2206 26.0001 22.9995 26.8397 23 27.6923V36.4615C23 36.8696 23.1703 37.2609 23.4734 37.5494C23.7765 37.8379 24.1875 38 24.6162 38H30.2727C30.7014 38 31.1124 37.8379 31.4155 37.5494C31.7186 37.2609 31.8889 36.8696 31.8889 36.4615V27.6923C31.8894 26.8397 31.6683 26.0001 31.2453 25.2485C30.8223 24.4969 30.2106 23.8566 29.4646 23.3846Z" stroke="white" stroke-opacity="0.75" stroke-width="2.4" stroke-linecap="round" stroke-linejoin="round"/>
</svg>
