<svg width="311" height="344" viewBox="0 0 311 344" fill="none" xmlns="http://www.w3.org/2000/svg">
<g opacity="0.5">
<rect width="6.99766" height="6.99766" transform="matrix(0.720135 0.693834 -0.720135 0.693834 305.961 100.311)" fill="white"/>
</g>
<g opacity="0.5">
<rect width="6.99766" height="6.99766" transform="matrix(0.720135 0.693834 -0.720135 0.693834 231.039 100.311)" fill="white"/>
</g>
<g opacity="0.5">
<rect width="6.99766" height="6.99766" transform="matrix(0.720135 0.693834 -0.720135 0.693834 305.961 133.597)" fill="white"/>
</g>
<g opacity="0.5">
<rect width="6.99766" height="6.99766" transform="matrix(0.720135 0.693834 -0.720135 0.693834 231.039 133.597)" fill="white"/>
</g>
<rect width="6.99766" height="6.99766" transform="matrix(0.720135 0.693834 -0.720135 0.693834 305.961 166.883)" fill="white"/>
<g opacity="0.5">
<rect width="6.99766" height="6.99766" transform="matrix(0.720135 0.693834 -0.720135 0.693834 231.039 166.883)" fill="white"/>
</g>
<g opacity="0.5">
<rect width="6.99766" height="6.99766" transform="matrix(0.720135 0.693834 -0.720135 0.693834 305.961 0)" fill="white"/>
</g>
<rect width="6.99766" height="6.99766" transform="matrix(0.720135 0.693834 -0.720135 0.693834 231.039 0)" fill="white"/>
<g opacity="0.5">
<rect width="6.99766" height="6.99766" transform="matrix(0.720135 0.693834 -0.720135 0.693834 305.961 200.168)" fill="white"/>
</g>
<g opacity="0.5">
<rect width="6.99766" height="6.99766" transform="matrix(0.720135 0.693834 -0.720135 0.693834 231.039 200.168)" fill="white"/>
</g>
<rect width="6.99766" height="6.99766" transform="matrix(0.720135 0.693834 -0.720135 0.693834 305.961 33.2857)" fill="white"/>
<g opacity="0.5">
<rect width="6.99766" height="6.99766" transform="matrix(0.720135 0.693834 -0.720135 0.693834 231.039 33.2857)" fill="white"/>
</g>
<g opacity="0.5">
<rect width="6.99766" height="6.99766" transform="matrix(0.720135 0.693834 -0.720135 0.693834 305.961 233.454)" fill="white"/>
</g>
<g opacity="0.5">
<rect width="6.99766" height="6.99766" transform="matrix(0.720135 0.693834 -0.720135 0.693834 231.039 233.454)" fill="white"/>
</g>
<g opacity="0.5">
<rect width="6.99766" height="6.99766" transform="matrix(0.720135 0.693834 -0.720135 0.693834 305.961 66.5716)" fill="white"/>
</g>
<g opacity="0.5">
<rect width="6.99766" height="6.99766" transform="matrix(0.720135 0.693834 -0.720135 0.693834 231.039 66.5716)" fill="white"/>
</g>
<rect width="6.99766" height="6.99766" transform="matrix(0.720135 0.693834 -0.720135 0.693834 305.961 266.74)" fill="white"/>
<g opacity="0.5">
<rect width="6.99766" height="6.99766" transform="matrix(0.720135 0.693834 -0.720135 0.693834 231.039 266.74)" fill="white"/>
</g>
<g opacity="0.5">
<rect width="6.99766" height="6.99766" transform="matrix(0.720135 0.693834 -0.720135 0.693834 305.961 300.026)" fill="white"/>
</g>
<g opacity="0.5">
<rect width="6.99766" height="6.99766" transform="matrix(0.720135 0.693834 -0.720135 0.693834 231.039 300.026)" fill="white"/>
</g>
<rect width="6.99766" height="6.99766" transform="matrix(0.720135 0.693834 -0.720135 0.693834 305.961 333.312)" fill="white"/>
<g opacity="0.5">
<rect width="6.99766" height="6.99766" transform="matrix(0.720135 0.693834 -0.720135 0.693834 231.039 333.312)" fill="white"/>
</g>
<g opacity="0.5">
<rect width="6.99766" height="6.99766" transform="matrix(0.720135 0.693834 -0.720135 0.693834 271.413 100.311)" fill="white"/>
</g>
<g opacity="0.5">
<rect width="6.99766" height="6.99766" transform="matrix(0.720135 0.693834 -0.720135 0.693834 271.413 133.597)" fill="white"/>
</g>
<g opacity="0.5">
<rect width="6.99766" height="6.99766" transform="matrix(0.720135 0.693834 -0.720135 0.693834 271.413 166.883)" fill="white"/>
</g>
<g opacity="0.5">
<rect width="6.99766" height="6.99766" transform="matrix(0.720135 0.693834 -0.720135 0.693834 271.413 0)" fill="white"/>
</g>
<rect width="6.99766" height="6.99766" transform="matrix(0.720135 0.693834 -0.720135 0.693834 271.413 200.168)" fill="white"/>
<g opacity="0.5">
<rect width="6.99766" height="6.99766" transform="matrix(0.720135 0.693834 -0.720135 0.693834 271.413 33.2857)" fill="white"/>
</g>
<g opacity="0.5">
<rect width="6.99766" height="6.99766" transform="matrix(0.720135 0.693834 -0.720135 0.693834 271.413 233.454)" fill="white"/>
</g>
<rect width="6.99766" height="6.99766" transform="matrix(0.720135 0.693834 -0.720135 0.693834 271.413 66.5716)" fill="white"/>
<g opacity="0.5">
<rect width="6.99766" height="6.99766" transform="matrix(0.720135 0.693834 -0.720135 0.693834 271.413 266.74)" fill="white"/>
</g>
<g opacity="0.5">
<rect width="6.99766" height="6.99766" transform="matrix(0.720135 0.693834 -0.720135 0.693834 271.413 300.026)" fill="white"/>
</g>
<g opacity="0.5">
<rect width="6.99766" height="6.99766" transform="matrix(0.720135 0.693834 -0.720135 0.693834 271.413 333.312)" fill="white"/>
</g>
<g opacity="0.5">
<rect width="6.99766" height="6.99766" transform="matrix(0.720135 0.693834 -0.720135 0.693834 193.961 100.311)" fill="white"/>
</g>
<g opacity="0.5">
<rect width="6.99766" height="6.99766" transform="matrix(0.720135 0.693834 -0.720135 0.693834 119.039 100.311)" fill="white"/>
</g>
<g opacity="0.5">
<rect width="6.99766" height="6.99766" transform="matrix(0.720135 0.693834 -0.720135 0.693834 193.961 133.597)" fill="white"/>
</g>
<g opacity="0.5">
<rect width="6.99766" height="6.99766" transform="matrix(0.720135 0.693834 -0.720135 0.693834 119.039 133.597)" fill="white"/>
</g>
<rect width="6.99766" height="6.99766" transform="matrix(0.720135 0.693834 -0.720135 0.693834 193.961 166.883)" fill="white"/>
<g opacity="0.5">
<rect width="6.99766" height="6.99766" transform="matrix(0.720135 0.693834 -0.720135 0.693834 119.039 166.883)" fill="white"/>
</g>
<g opacity="0.5">
<rect width="6.99766" height="6.99766" transform="matrix(0.720135 0.693834 -0.720135 0.693834 193.961 0)" fill="white"/>
</g>
<rect width="6.99766" height="6.99766" transform="matrix(0.720135 0.693834 -0.720135 0.693834 119.039 0)" fill="white"/>
<g opacity="0.5">
<rect width="6.99766" height="6.99766" transform="matrix(0.720135 0.693834 -0.720135 0.693834 193.961 200.168)" fill="white"/>
</g>
<g opacity="0.5">
<rect width="6.99766" height="6.99766" transform="matrix(0.720135 0.693834 -0.720135 0.693834 119.039 200.168)" fill="white"/>
</g>
<rect width="6.99766" height="6.99766" transform="matrix(0.720135 0.693834 -0.720135 0.693834 193.961 33.2857)" fill="white"/>
<g opacity="0.5">
<rect width="6.99766" height="6.99766" transform="matrix(0.720135 0.693834 -0.720135 0.693834 119.039 33.2857)" fill="white"/>
</g>
<g opacity="0.5">
<rect width="6.99766" height="6.99766" transform="matrix(0.720135 0.693834 -0.720135 0.693834 193.961 233.454)" fill="white"/>
</g>
<g opacity="0.5">
<rect width="6.99766" height="6.99766" transform="matrix(0.720135 0.693834 -0.720135 0.693834 119.039 233.454)" fill="white"/>
</g>
<g opacity="0.5">
<rect width="6.99766" height="6.99766" transform="matrix(0.720135 0.693834 -0.720135 0.693834 193.961 66.5716)" fill="white"/>
</g>
<g opacity="0.5">
<rect width="6.99766" height="6.99766" transform="matrix(0.720135 0.693834 -0.720135 0.693834 119.039 66.5716)" fill="white"/>
</g>
<rect width="6.99766" height="6.99766" transform="matrix(0.720135 0.693834 -0.720135 0.693834 193.961 266.74)" fill="white"/>
<g opacity="0.5">
<rect width="6.99766" height="6.99766" transform="matrix(0.720135 0.693834 -0.720135 0.693834 119.039 266.74)" fill="white"/>
</g>
<g opacity="0.5">
<rect width="6.99766" height="6.99766" transform="matrix(0.720135 0.693834 -0.720135 0.693834 193.961 300.026)" fill="white"/>
</g>
<g opacity="0.5">
<rect width="6.99766" height="6.99766" transform="matrix(0.720135 0.693834 -0.720135 0.693834 119.039 300.026)" fill="white"/>
</g>
<rect width="6.99766" height="6.99766" transform="matrix(0.720135 0.693834 -0.720135 0.693834 193.961 333.312)" fill="white"/>
<g opacity="0.5">
<rect width="6.99766" height="6.99766" transform="matrix(0.720135 0.693834 -0.720135 0.693834 119.039 333.312)" fill="white"/>
</g>
<g opacity="0.5">
<rect width="6.99766" height="6.99766" transform="matrix(0.720135 0.693834 -0.720135 0.693834 159.413 100.311)" fill="white"/>
</g>
<g opacity="0.5">
<rect width="6.99766" height="6.99766" transform="matrix(0.720135 0.693834 -0.720135 0.693834 159.413 133.597)" fill="white"/>
</g>
<g opacity="0.5">
<rect width="6.99766" height="6.99766" transform="matrix(0.720135 0.693834 -0.720135 0.693834 159.413 166.883)" fill="white"/>
</g>
<g opacity="0.5">
<rect width="6.99766" height="6.99766" transform="matrix(0.720135 0.693834 -0.720135 0.693834 159.413 0)" fill="white"/>
</g>
<rect width="6.99766" height="6.99766" transform="matrix(0.720135 0.693834 -0.720135 0.693834 159.413 200.168)" fill="white"/>
<g opacity="0.5">
<rect width="6.99766" height="6.99766" transform="matrix(0.720135 0.693834 -0.720135 0.693834 159.413 33.2857)" fill="white"/>
</g>
<g opacity="0.5">
<rect width="6.99766" height="6.99766" transform="matrix(0.720135 0.693834 -0.720135 0.693834 159.413 233.454)" fill="white"/>
</g>
<rect width="6.99766" height="6.99766" transform="matrix(0.720135 0.693834 -0.720135 0.693834 159.413 66.5716)" fill="white"/>
<g opacity="0.5">
<rect width="6.99766" height="6.99766" transform="matrix(0.720135 0.693834 -0.720135 0.693834 159.413 266.74)" fill="white"/>
</g>
<g opacity="0.5">
<rect width="6.99766" height="6.99766" transform="matrix(0.720135 0.693834 -0.720135 0.693834 159.413 300.026)" fill="white"/>
</g>
<g opacity="0.5">
<rect width="6.99766" height="6.99766" transform="matrix(0.720135 0.693834 -0.720135 0.693834 159.413 333.312)" fill="white"/>
</g>
<g opacity="0.5">
<rect width="6.99766" height="6.99766" transform="matrix(0.720135 0.693834 -0.720135 0.693834 79.9608 100.311)" fill="white"/>
</g>
<g opacity="0.5">
<rect width="6.99766" height="6.99766" transform="matrix(0.720135 0.693834 -0.720135 0.693834 5.03925 100.311)" fill="white"/>
</g>
<g opacity="0.5">
<rect width="6.99766" height="6.99766" transform="matrix(0.720135 0.693834 -0.720135 0.693834 79.9608 133.597)" fill="white"/>
</g>
<g opacity="0.5">
<rect width="6.99766" height="6.99766" transform="matrix(0.720135 0.693834 -0.720135 0.693834 5.03925 133.597)" fill="white"/>
</g>
<rect width="6.99766" height="6.99766" transform="matrix(0.720135 0.693834 -0.720135 0.693834 79.9608 166.883)" fill="white"/>
<g opacity="0.5">
<rect width="6.99766" height="6.99766" transform="matrix(0.720135 0.693834 -0.720135 0.693834 5.03925 166.883)" fill="white"/>
</g>
<g opacity="0.5">
<rect width="6.99766" height="6.99766" transform="matrix(0.720135 0.693834 -0.720135 0.693834 79.9608 0)" fill="white"/>
</g>
<rect width="6.99766" height="6.99766" transform="matrix(0.720135 0.693834 -0.720135 0.693834 5.03925 0)" fill="white"/>
<g opacity="0.5">
<rect width="6.99766" height="6.99766" transform="matrix(0.720135 0.693834 -0.720135 0.693834 79.9608 200.168)" fill="white"/>
</g>
<g opacity="0.5">
<rect width="6.99766" height="6.99766" transform="matrix(0.720135 0.693834 -0.720135 0.693834 5.03925 200.168)" fill="white"/>
</g>
<rect width="6.99766" height="6.99766" transform="matrix(0.720135 0.693834 -0.720135 0.693834 79.9608 33.2857)" fill="white"/>
<g opacity="0.5">
<rect width="6.99766" height="6.99766" transform="matrix(0.720135 0.693834 -0.720135 0.693834 5.03925 33.2857)" fill="white"/>
</g>
<g opacity="0.5">
<rect width="6.99766" height="6.99766" transform="matrix(0.720135 0.693834 -0.720135 0.693834 79.9608 233.454)" fill="white"/>
</g>
<g opacity="0.5">
<rect width="6.99766" height="6.99766" transform="matrix(0.720135 0.693834 -0.720135 0.693834 5.03925 233.454)" fill="white"/>
</g>
<g opacity="0.5">
<rect width="6.99766" height="6.99766" transform="matrix(0.720135 0.693834 -0.720135 0.693834 79.9608 66.5716)" fill="white"/>
</g>
<g opacity="0.5">
<rect width="6.99766" height="6.99766" transform="matrix(0.720135 0.693834 -0.720135 0.693834 5.03925 66.5716)" fill="white"/>
</g>
<rect width="6.99766" height="6.99766" transform="matrix(0.720135 0.693834 -0.720135 0.693834 79.9608 266.74)" fill="white"/>
<g opacity="0.5">
<rect width="6.99766" height="6.99766" transform="matrix(0.720135 0.693834 -0.720135 0.693834 5.03925 266.74)" fill="white"/>
</g>
<g opacity="0.5">
<rect width="6.99766" height="6.99766" transform="matrix(0.720135 0.693834 -0.720135 0.693834 79.9608 300.026)" fill="white"/>
</g>
<g opacity="0.5">
<rect width="6.99766" height="6.99766" transform="matrix(0.720135 0.693834 -0.720135 0.693834 5.03925 300.026)" fill="white"/>
</g>
<rect width="6.99766" height="6.99766" transform="matrix(0.720135 0.693834 -0.720135 0.693834 79.9608 333.312)" fill="white"/>
<g opacity="0.5">
<rect width="6.99766" height="6.99766" transform="matrix(0.720135 0.693834 -0.720135 0.693834 5.03925 333.312)" fill="white"/>
</g>
<g opacity="0.5">
<rect width="6.99766" height="6.99766" transform="matrix(0.720135 0.693834 -0.720135 0.693834 45.4131 100.311)" fill="white"/>
</g>
<g opacity="0.5">
<rect width="6.99766" height="6.99766" transform="matrix(0.720135 0.693834 -0.720135 0.693834 45.4131 133.597)" fill="white"/>
</g>
<g opacity="0.5">
<rect width="6.99766" height="6.99766" transform="matrix(0.720135 0.693834 -0.720135 0.693834 45.4131 166.883)" fill="white"/>
</g>
<g opacity="0.5">
<rect width="6.99766" height="6.99766" transform="matrix(0.720135 0.693834 -0.720135 0.693834 45.4131 0)" fill="white"/>
</g>
<rect width="6.99766" height="6.99766" transform="matrix(0.720135 0.693834 -0.720135 0.693834 45.4131 200.168)" fill="white"/>
<g opacity="0.5">
<rect width="6.99766" height="6.99766" transform="matrix(0.720135 0.693834 -0.720135 0.693834 45.4131 33.2857)" fill="white"/>
</g>
<g opacity="0.5">
<rect width="6.99766" height="6.99766" transform="matrix(0.720135 0.693834 -0.720135 0.693834 45.4131 233.454)" fill="white"/>
</g>
<rect width="6.99766" height="6.99766" transform="matrix(0.720135 0.693834 -0.720135 0.693834 45.4131 66.5716)" fill="white"/>
<g opacity="0.5">
<rect width="6.99766" height="6.99766" transform="matrix(0.720135 0.693834 -0.720135 0.693834 45.4131 266.74)" fill="white"/>
</g>
<g opacity="0.5">
<rect width="6.99766" height="6.99766" transform="matrix(0.720135 0.693834 -0.720135 0.693834 45.4131 300.026)" fill="white"/>
</g>
<g opacity="0.5">
<rect width="6.99766" height="6.99766" transform="matrix(0.720135 0.693834 -0.720135 0.693834 45.4131 333.312)" fill="white"/>
</g>
</svg>
